<svg xmlns:xlink="http://www.w3.org/1999/xlink" xmlns="http://www.w3.org/2000/svg" stroke-width="0.501" stroke-linejoin="bevel" fill-rule="evenodd" version="1.1" overflow="visible" viewBox="0 0 96 96" x="0px" y="0px"><g fill="none" stroke="black" font-family="Times New Roman" font-size="16" transform="scale(1 -1)"><g transform="translate(0 -96)"><g><path d="M 23.675,9.495 L 23.542,13.539 L 21.888,15.395 L 9.593,15.395 C 8.765,15.395 8.093,16.067 8.093,16.895 C 8.093,17.722 8.765,18.395 9.593,18.395 L 19.212,18.395 L 17.473,20.345 L 17.426,20.401 C 13.96,24.689 13.933,28.266 15.455,32.229 L 20.038,43.961 C 20.516,45.092 21.566,47.018 23.107,48.09 L 30.89,53.405 C 30.309,53.938 29.762,54.463 29.261,54.972 C 27.709,56.547 26.144,58.375 25.929,59.929 C 25.912,60.052 25.902,60.18 25.902,60.313 C 25.902,60.434 25.907,60.554 25.919,60.671 C 25.879,60.923 25.903,61.19 26.005,61.451 C 32.919,79.121 38.1,88.09 47.756,89.36 L 48.147,89.36 C 57.929,88.074 63.073,78.897 69.898,61.451 C 69.999,61.191 70.023,60.925 69.984,60.674 C 69.996,60.556 70.002,60.435 70.002,60.313 C 70.002,60.181 69.992,60.054 69.975,59.932 C 69.763,58.393 68.163,56.512 66.651,54.975 C 66.148,54.464 65.6,53.937 65.018,53.402 L 72.797,48.089 C 74.337,47.018 75.388,45.093 75.866,43.96 L 80.448,32.229 C 81.974,28.255 81.942,24.687 78.477,20.401 L 78.43,20.345 L 76.69,18.395 L 85.886,18.395 C 86.713,18.395 87.386,17.722 87.386,16.895 C 87.386,16.067 86.713,15.395 85.886,15.395 L 74.015,15.395 L 72.359,13.538 L 72.227,9.495 C 72.2,8.687 71.536,8.045 70.728,8.045 L 25.175,8.045 C 24.366,8.045 23.702,8.687 23.675,9.495 Z M 69.276,11.045 L 69.33,12.708 L 26.571,12.708 L 26.626,11.045 L 69.276,11.045 Z M 69.428,15.708 L 70.31,42.629 C 70.31,43.162 69.854,43.619 69.295,43.619 L 26.608,43.619 C 26.048,43.619 25.593,43.162 25.593,42.629 L 26.473,15.708 L 69.428,15.708 Z M 44.065,19.307 L 43.807,22.2 L 41.84,22.2 C 41.095,22.2 40.489,22.805 40.489,23.549 L 40.489,24.03 C 40.489,24.569 40.806,25.034 41.262,25.249 C 39.983,26.741 39.21,28.679 39.21,30.794 C 39.21,35.5 43.03,39.319 47.739,39.319 C 52.447,39.319 56.268,35.5 56.268,30.794 C 56.268,28.679 55.495,26.741 54.216,25.249 C 54.671,25.034 54.987,24.569 54.987,24.03 L 54.987,23.549 C 54.987,22.805 54.382,22.2 53.638,22.2 L 51.672,22.2 L 51.413,19.307 L 44.065,19.307 Z M 47.095,23.96 L 47.394,25.243 C 47.463,25.54 47.277,25.837 46.982,25.905 C 46.685,25.974 46.389,25.789 46.321,25.493 L 46.022,24.209 C 45.953,23.913 46.139,23.616 46.434,23.548 C 46.732,23.479 47.027,23.663 47.095,23.96 Z M 49.687,24.209 L 49.388,25.493 C 49.319,25.79 49.023,25.974 48.726,25.905 C 48.429,25.837 48.244,25.539 48.314,25.243 L 48.613,23.96 C 48.682,23.663 48.98,23.479 49.275,23.548 C 49.572,23.616 49.756,23.914 49.687,24.209 Z M 46.794,29.461 C 46.794,29.588 46.786,29.714 46.768,29.836 C 45.064,29.932 43.461,30.278 42.043,30.82 C 41.796,30.425 41.654,29.96 41.654,29.461 C 41.654,28.042 42.804,26.89 44.226,26.89 C 45.642,26.89 46.794,28.042 46.794,29.461 Z M 53.825,29.461 C 53.825,29.96 53.681,30.425 53.436,30.82 C 52.017,30.278 50.416,29.932 48.71,29.836 C 48.692,29.714 48.684,29.588 48.684,29.461 C 48.684,28.042 49.835,26.89 51.254,26.89 C 52.675,26.89 53.825,28.042 53.825,29.461 Z M 48.089,50.024 L 49.939,50.437 C 51.602,50.891 53.172,51.557 54.585,52.641 L 55.323,53.268 C 55.385,53.322 55.432,53.386 55.464,53.456 L 56.404,55.565 C 57.023,57.067 57.562,58.612 58.029,60.32 L 58.591,62.649 C 58.646,62.879 58.527,63.116 58.3,63.229 L 57.501,63.621 L 38.403,63.621 L 37.603,63.229 C 37.376,63.116 37.257,62.879 37.312,62.649 L 37.874,60.32 C 38.341,58.612 38.88,57.067 39.499,55.565 L 40.439,53.456 C 40.47,53.386 40.519,53.322 40.58,53.268 L 41.303,52.654 C 42.732,51.557 44.301,50.891 45.945,50.442 L 47.814,50.024 L 48.089,50.024 Z M 48.294,57.426 L 48.115,62.45 L 50.409,57.426 L 48.294,57.426 Z M 63.571,68.886 L 48.171,84.272 C 47.879,84.564 47.878,85.04 48.171,85.333 C 48.463,85.625 48.939,85.626 49.232,85.333 L 61.699,72.878 C 57.609,81.102 53.965,84.969 49.149,86.128 L 47.951,86.348 L 46.765,86.13 C 40.738,84.683 36.509,78.97 30.883,65.526 C 31.562,65.81 32.268,66.061 32.976,66.283 C 36.877,67.502 42.172,68.234 47.952,68.234 C 48.905,68.234 49.846,68.214 50.77,68.175 L 48.171,70.772 C 47.879,71.064 47.878,71.54 48.171,71.833 C 48.463,72.125 48.939,72.126 49.232,71.833 L 53.028,68.04 C 53.933,67.97 54.817,67.881 55.675,67.775 L 48.171,75.272 C 47.879,75.564 47.878,76.04 48.171,76.333 C 48.463,76.625 48.939,76.626 49.232,76.333 L 58.077,67.497 C 58.104,67.469 58.129,67.44 58.151,67.409 C 59.218,67.224 60.232,67.011 61.184,66.771 L 48.171,79.772 C 47.879,80.064 47.878,80.54 48.171,80.833 C 48.463,81.125 48.939,81.126 49.232,80.833 L 64.125,65.955 C 64.16,65.919 64.191,65.881 64.217,65.841 C 64.488,65.741 64.755,65.635 65.019,65.524 C 64.526,66.703 64.044,67.822 63.571,68.886 Z" stroke-linecap="round" stroke="none" fill="#000000" stroke-linejoin="round" stroke-width="3" marker-start="none" marker-end="none" stroke-miterlimit="79.8403193612775"></path></g></g></g></svg>